<svg width="1476" height="1080" viewBox="0 0 1476 931" fill="none" xmlns="http://www.w3.org/2000/svg">
<rect y="34" width="1476" height="897" fill="#CF5804"/>
<path d="M783.851 461.68C771.684 521.392 538.516 638.936 476.5 626.299C414.483 613.662 464.331 390.393 476.499 330.68C488.666 270.968 631.577 318.043 693.593 330.68C755.61 343.317 796.019 401.968 783.851 461.68Z" fill="#D5691A"/>
<path d="M1626 203.5C1626 370.566 1471.99 506 1282 506C1092.01 506 938 370.566 938 203.5C938 36.4339 1092.01 -99 1282 -99C1471.99 -99 1626 36.4339 1626 203.5Z" fill="#F9CA96" fill-opacity="0.15"/>
<ellipse cx="40" cy="839" rx="169" ry="156" fill="#F9CA95" fill-opacity="0.15"/>
</svg>
