<svg width="93" height="121" viewBox="0 0 93 121" fill="none" xmlns="http://www.w3.org/2000/svg">
<path d="M46.5 0C23.25 0 0 42.5517 0 73.9444C0 99.9594 20.7921 121 46.5 121C72.2079 121 93 99.9594 93 73.9444C93 42.5517 69.75 0 46.5 0ZM53.1429 100.833C33.2143 100.833 19.9286 87.4561 19.9286 67.2222C19.9286 63.525 22.9179 60.5 26.5714 60.5C30.225 60.5 33.2143 63.525 33.2143 67.2222C33.2143 86.8511 49.29 87.3889 53.1429 87.3889C56.7964 87.3889 59.7857 90.4139 59.7857 94.1111C59.7857 97.8083 56.7964 100.833 53.1429 100.833Z" fill="black"/>
</svg>
